HIERARCHY
ROOT root
{
	OFFSET 0.000000 0.000000 0.000000
	CHANNELS 6 Xposition Yposition Zposition Zrotation Yrotation Xrotation
	JOINT lhip
	{
		OFFSET 0.058581 -0.082280 -0.017664
		CHANNELS 3 Zrotation Yrotation Xrotation
		JOINT lknee
		{
			OFFSET 0.043451 -0.386469 0.008037
			CHANNELS 3 Zrotation Yrotation Xrotation
			JOINT lankle
			{
				OFFSET -0.014790 -0.426874 -0.037428
				CHANNELS 3 Zrotation Yrotation Xrotation
				JOINT ltoe
				{
					OFFSET 0.041054 -0.060286 0.122042
					CHANNELS 3 Zrotation Yrotation Xrotation
					End Site
					{
						OFFSET 0.000000 0.000000 0.000000
					}
				}
			}
		}
	}
	JOINT rhip
	{
		OFFSET -0.060310 -0.090513 -0.013543
		CHANNELS 3 Zrotation Yrotation Xrotation
		JOINT rknee
		{
			OFFSET -0.043257 -0.383688 -0.004843
			CHANNELS 3 Zrotation Yrotation Xrotation
			JOINT rankle
			{
				OFFSET 0.019056 -0.420046 -0.034562
				CHANNELS 3 Zrotation Yrotation Xrotation
				JOINT rtoe
				{
					OFFSET -0.034840 -0.062106 0.130323
					CHANNELS 3 Zrotation Yrotation Xrotation
					End Site
					{
						OFFSET 0.000000 0.000000 0.000000
					}
				}
			}
		}
	}
	JOINT lowerback
	{
		OFFSET 0.004439 0.124404 -0.038385
		CHANNELS 3 Zrotation Yrotation Xrotation
		JOINT upperback
		{
			OFFSET 0.004488 0.137956 0.026820
			CHANNELS 3 Zrotation Yrotation Xrotation
			JOINT chest
			{
				OFFSET -0.002265 0.056032 0.002855
				CHANNELS 3 Zrotation Yrotation Xrotation
				JOINT lowerneck
				{
					OFFSET -0.013390 0.211636 -0.033468
					CHANNELS 3 Zrotation Yrotation Xrotation
					JOINT upperneck
					{
						OFFSET 0.010113 0.088937 0.050410
						CHANNELS 3 Zrotation Yrotation Xrotation
						End Site
						{
							OFFSET 0.000000 0.000000 0.000000
						}
					}
				}
				JOINT lclavicle
				{
					OFFSET 0.071702 0.114000 -0.018898
					CHANNELS 3 Zrotation Yrotation Xrotation
					JOINT lshoulder
					{
						OFFSET 0.122921 0.045205 -0.019046
						CHANNELS 3 Zrotation Yrotation Xrotation
						JOINT lelbow
						{
							OFFSET 0.255332 -0.015649 -0.022946
							CHANNELS 3 Zrotation Yrotation Xrotation
							JOINT lwrist
							{
								OFFSET 0.265709 0.012698 -0.007375
								CHANNELS 3 Zrotation Yrotation Xrotation
								End Site
								{
									OFFSET 0.000000 0.000000 0.000000
								}
							}
						}
					}
				}
				JOINT rclavicle
				{
					OFFSET -0.082954 0.112472 -0.023707
					CHANNELS 3 Zrotation Yrotation Xrotation
					JOINT rshoulder
					{
						OFFSET -0.113228 0.046853 -0.008472
						CHANNELS 3 Zrotation Yrotation Xrotation
						JOINT relbow
						{
							OFFSET -0.260127 -0.014369 -0.031269
							CHANNELS 3 Zrotation Yrotation Xrotation
							JOINT rwrist
							{
								OFFSET -0.269108 0.006794 -0.006027
								CHANNELS 3 Zrotation Yrotation Xrotation
								End Site
								{
									OFFSET 0.000000 0.000000 0.000000
								}
							}
						}
					}
				}
			}
		}
	}
}
MOTION
Frames: 14
Frame Time: 0.033333
0.028190 0.762485 0.994070 85.329163 -5.080456 88.424043 -1.797763 -6.151061 -23.081760 -7.482517 9.322571 20.706760 11.171483 13.840602 -5.385456 0.000000 -0.000000 0.000000 -10.911778 -1.260713 6.471895 2.027428 0.273475 51.203530 3.973738 -6.737529 10.724000 0.000000 -0.000000 0.000000 -6.286174 8.922665 1.415309 2.695038 -1.528494 8.969921 -1.253622 2.141460 -2.703998 4.926613 -9.579204 -2.853389 1.258100 -6.405135 -5.997658 -18.991125 11.981450 1.950673 -60.912057 15.177739 13.655308 10.878630 -30.126801 10.770579 -8.117013 -11.898799 -5.145121 24.968145 1.116949 -0.026364 56.262252 10.819262 13.344269 -11.640180 44.455946 -14.794148 -0.081736 14.633707 -15.417936 
0.075003 0.770345 1.005685 86.252111 -5.134222 87.748750 -4.120400 -5.566733 -17.386824 -7.224958 6.495841 17.876634 10.959161 14.958854 -6.984762 0.000000 -0.000000 0.000000 -9.960848 -1.579139 -0.153208 -1.413122 -1.781453 60.220586 1.269697 -11.421473 5.519778 0.000000 -0.000000 0.000000 -5.904113 6.755363 3.299298 2.618865 -1.354251 8.300516 -1.138178 1.975840 -2.730038 3.550878 -9.449462 -1.874756 2.296881 -5.282537 -7.607167 -20.055709 10.311231 1.505541 -60.763234 12.401248 14.874664 9.046027 -31.973220 10.489918 -5.082267 -12.316382 -4.976840 24.829191 0.925503 -0.454789 57.625440 7.661167 14.123110 -11.845769 40.833402 -12.772927 -4.093053 14.310704 -17.298330 
0.118771 0.776019 1.020122 87.810418 -4.574744 87.351212 -5.518516 -5.350703 -11.574643 -6.651972 2.416060 13.856306 9.812208 16.518767 -7.705324 0.000000 -0.000000 0.000000 -7.915590 -1.424238 -6.472307 -3.155125 -3.305225 64.206016 -1.081713 -14.643223 2.745017 0.000000 -0.000000 0.000000 -5.093147 4.521107 4.540060 2.818497 -1.532810 8.118839 -0.904835 1.511819 -3.037664 1.735058 -9.753945 -0.733862 3.490609 -4.069853 -8.115723 -21.244564 7.633413 2.245689 -60.161677 8.569389 16.295961 6.888091 -33.900319 11.232742 -4.147684 -13.000355 -4.510315 24.608171 0.858629 -0.150673 58.583459 4.240964 13.569364 -12.437002 37.888717 -12.021532 -4.716177 13.909636 -18.136677 
0.166365 0.782190 1.032744 90.203523 -3.804492 86.894284 -6.463859 -4.057569 -5.544795 -5.668666 -1.544802 10.052182 8.538179 16.643306 -9.495241 0.000000 -0.000000 0.000000 -6.507602 -1.200715 -10.970506 -2.856294 -5.168326 63.886166 -0.737202 -14.809386 -1.210011 0.000000 -0.000000 0.000000 -4.128279 2.059589 4.799333 3.101354 -2.045543 8.733115 -0.745351 0.705241 -3.298432 0.789009 -8.923155 0.355843 4.044997 -3.911629 -8.594972 -21.722651 5.242215 1.948432 -59.623553 5.033507 18.038393 4.959886 -35.517932 12.564548 -6.730223 -13.958916 -2.184480 23.699778 0.369956 -0.892248 59.927354 -0.028162 13.402176 -13.363184 34.489320 -10.970879 -3.399841 14.478216 -18.119497 
0.210614 0.786167 1.042409 92.545136 -2.464480 86.523324 -5.949807 -2.514190 0.142330 -4.714913 -5.472398 6.054917 6.582418 16.765767 -10.157231 0.000000 -0.000000 0.000000 -4.556464 -0.440286 -15.354481 -1.404056 -6.743006 60.077711 -1.166858 -15.165960 -5.061899 0.000000 -0.000000 0.000000 -3.065339 -0.580676 5.578512 3.601485 -2.442714 8.319971 -0.239593 -0.131059 -2.859728 0.028059 -8.025521 0.616462 4.354770 -3.645352 -8.604083 -22.132381 3.334485 1.939036 -59.118896 0.416699 18.834516 2.808516 -37.593981 12.002182 -5.579560 -14.691664 -0.275951 22.884342 -0.005855 -0.956435 59.896931 -3.720149 12.273703 -12.925312 32.681479 -9.238046 -2.286127 13.753343 -17.266647 
0.255542 0.789564 1.047340 95.165014 -1.331517 85.993320 -4.932837 -0.771384 5.434100 -3.839332 -8.702306 2.886413 4.931526 16.199893 -11.521876 0.000000 -0.000000 0.000000 -3.613117 0.007457 -18.160668 -0.053501 -8.191348 52.668709 -0.619054 -14.902343 -7.077772 0.000000 -0.000000 0.000000 -2.219929 -2.956822 6.591686 4.108001 -3.142237 8.323843 0.176200 -1.073193 -3.090642 -0.792180 -7.059045 1.083421 4.757187 -3.697418 -8.773308 -22.367256 1.457404 2.417200 -58.274849 -4.417365 19.243772 2.019712 -40.224144 10.253397 -5.193377 -16.031078 1.863751 22.082915 -0.861066 -0.878379 59.385658 -7.253216 10.988092 -12.322135 32.076676 -7.910432 0.532751 14.113971 -16.113668 
0.300342 0.793310 1.046083 97.503061 -0.877270 85.799420 -4.128273 1.005830 10.176259 -3.054112 -11.163194 -0.069061 3.319360 15.608705 -13.224602 0.000000 -0.000000 0.000000 -3.597107 0.115584 -20.827430 1.116592 -8.382258 43.345354 0.316148 -15.355164 -10.958491 0.000000 -0.000000 0.000000 -1.994985 -4.723863 7.528039 4.329917 -3.796885 7.692982 0.691556 -2.030456 -2.706786 -1.502401 -6.409813 0.834092 5.300712 -3.518540 -8.752834 -22.420195 0.070228 2.400585 -56.803392 -9.201069 19.689367 0.423232 -42.432676 9.218457 -3.391472 -17.616942 2.768534 21.408100 -2.612841 -1.625069 58.279448 -11.047258 9.666152 -11.151757 32.650345 -6.068720 1.112590 15.375472 -14.747524 
0.345952 0.796547 1.039620 99.684150 -0.748959 85.949061 -3.211138 2.543936 13.801550 -2.637980 -13.284858 -1.363524 1.724774 14.631997 -15.154961 0.000000 -0.000000 0.000000 -3.952926 -0.092055 -22.722804 1.355470 -7.978772 32.123183 0.177761 -15.519558 -10.519646 0.000000 -0.000000 0.000000 -2.158010 -6.069816 7.586971 4.659686 -4.597566 7.623869 0.990128 -2.924400 -2.502504 -2.092439 -5.956829 1.003717 5.855370 -3.262869 -8.707514 -22.572425 -1.177794 2.578316 -54.873250 -14.074164 20.075227 -0.006812 -44.569178 7.171391 -1.667446 -18.385691 2.531662 20.668766 -4.337984 -1.794279 57.631354 -13.608426 8.757942 -9.891233 32.563859 -4.991136 0.189093 14.731738 -14.237072 
0.391750 0.799160 1.030031 101.178800 -1.125431 86.488880 -2.431219 3.878965 16.576801 -2.662001 -14.942663 -1.957176 0.721341 13.950353 -17.166290 0.000000 -0.000000 0.000000 -4.619156 -1.056210 -23.691905 2.123265 -5.987881 18.348793 0.324953 -14.621620 -11.224685 0.000000 -0.000000 0.000000 -2.522172 -6.619952 7.254359 4.799193 -5.430065 8.047749 1.317066 -3.681065 -3.013544 -2.862238 -5.716764 0.822188 6.136976 -3.032851 -8.374445 -22.739434 -2.223972 2.778036 -53.296698 -18.753989 20.093033 0.719414 -45.492857 4.137686 -0.770868 -19.028466 3.138137 20.074426 -6.233875 -1.738152 56.473066 -16.137842 7.742471 -8.843540 32.548605 -4.442372 2.154146 15.376557 -13.790807 
0.439310 0.801285 1.018141 102.325702 -1.957087 87.444814 -1.866992 4.941193 18.724720 -2.974831 -15.860107 -1.912276 -0.669490 12.735168 -18.786399 0.000000 -0.000000 0.000000 -5.448673 -2.252207 -25.435089 2.321270 -2.998589 7.169013 1.687551 -12.881230 -12.233774 0.000000 -0.000000 0.000000 -3.090517 -6.843254 6.039564 4.595408 -6.308226 8.499987 1.514822 -4.433306 -3.336248 -3.533343 -5.644164 1.007499 6.664840 -2.640189 -8.125175 -23.174494 -3.042054 3.069976 -51.765437 -22.524626 19.468570 2.592778 -46.105599 0.051563 -0.141231 -18.918483 4.204112 19.542002 -7.759238 -1.250774 56.062040 -17.858954 6.186254 -8.628335 31.916217 -5.418662 2.704787 15.121832 -12.821900 
0.488925 0.802173 1.006459 102.720018 -2.604793 88.381877 -0.722076 5.871996 20.649064 -3.623134 -16.740245 -0.973271 -2.045947 11.015765 -19.856761 0.000000 -0.000000 0.000000 -5.404147 -3.389686 -27.706036 1.746024 -0.039812 0.876690 2.256502 -10.460789 -11.716367 0.000000 -0.000000 0.000000 -3.465142 -7.026186 4.694889 4.412981 -6.682846 9.026355 1.530665 -5.019712 -3.427217 -3.650017 -4.957998 1.261045 6.818993 -2.490618 -8.502441 -23.360217 -3.820022 2.755471 -51.077792 -25.327125 18.919953 5.282982 -45.616359 -4.661053 2.221324 -19.484720 5.937959 19.101953 -8.806403 -1.352604 55.714733 -19.326339 4.908310 -9.064943 29.979741 -6.227219 2.325268 15.560190 -11.375630 
0.542268 0.801095 0.997357 102.945930 -2.576486 88.343566 1.544976 6.141527 23.756048 -4.588047 -18.707138 0.389231 -3.677917 9.980018 -19.894391 0.000000 -0.000000 0.000000 -5.281903 -2.597748 -29.282831 2.135317 -2.358745 2.374140 2.790570 -11.132541 -12.447144 0.000000 -0.000000 0.000000 -3.748989 -8.141352 4.774254 4.469170 -6.204230 8.890541 1.664732 -5.291624 -3.261759 -3.470149 -3.836222 1.174872 6.795517 -2.826014 -8.396792 -23.505322 -3.583539 2.606417 -51.100396 -27.093920 18.736228 7.067590 -45.319103 -6.693085 -1.182445 -19.985706 5.792218 19.298873 -9.830106 -1.346034 55.041397 -20.162061 3.748102 -10.486520 28.428675 -6.458685 5.417818 15.351170 -10.026690 
0.598908 0.799964 0.990455 102.843209 -2.451168 88.007965 3.297618 5.542679 27.035943 -5.607691 -20.381149 2.519415 -4.829828 9.704695 -17.942287 0.000000 -0.000000 0.000000 -5.140690 -1.208289 -31.026541 3.321400 -4.192549 10.735749 1.098036 -12.177991 -13.553175 0.000000 -0.000000 0.000000 -3.715200 -9.679738 4.660906 4.295354 -5.590776 9.189220 1.397607 -5.288633 -2.988103 -2.773316 -2.856640 0.852362 6.366676 -2.922605 -8.355366 -23.515813 -3.015318 2.281071 -52.014119 -27.081587 18.259375 10.299853 -45.872874 -9.784860 -2.983372 -19.293837 6.615871 19.368251 -9.967966 -1.000561 55.460266 -20.530601 3.189868 -13.009220 26.930497 -6.529777 7.364532 13.645565 -9.099297 
0.658288 0.798669 0.987407 102.674422 -2.497421 88.462472 4.709544 4.776566 27.525381 -7.639084 -19.809497 8.043736 -6.198916 8.635644 -13.610111 0.000000 -0.000000 0.000000 -4.985445 -0.430099 -32.202801 4.188042 -4.695509 17.058988 0.293434 -9.913865 -6.044118 0.000000 -0.000000 0.000000 -3.556955 -10.397539 3.375899 4.468454 -5.458232 9.598548 1.012361 -5.368269 -3.346012 -2.742744 -1.973113 1.956215 5.783526 -3.105955 -9.076995 -24.497073 -2.591980 2.481451 -51.698743 -25.643005 17.659928 11.056934 -46.273614 -10.454351 -3.456580 -19.320816 6.571740 19.868629 -10.298146 -0.805185 54.854160 -20.750620 2.131669 -13.646943 25.538940 -6.503101 7.855691 12.916120 -7.984333 
